HIERARCHY
ROOT Hips
{
	OFFSET 0.00000 0.00000 0.00000
	CHANNELS 6 Xposition Yposition Zposition Zrotation Yrotation Xrotation 
	JOINT LHipJoint
	{
		OFFSET 0 0 0
		CHANNELS 3 Zrotation Yrotation Xrotation
		JOINT LeftHip
		{
			OFFSET 1.62964 -1.40469 0.78906
			CHANNELS 3 Zrotation Yrotation Xrotation
			JOINT LeftKnee
			{
				OFFSET 2.29640 -6.30932 0.00000
				CHANNELS 3 Zrotation Yrotation Xrotation
				JOINT LeftAnkle
				{
					OFFSET 2.29451 -6.30412 0.00000
					CHANNELS 3 Zrotation Yrotation Xrotation
					JOINT LeftToe
					{
						OFFSET 0.03611 -0.09921 1.56387
						CHANNELS 3 Zrotation Yrotation Xrotation
						End Site
						{
							OFFSET 0.00000 -0.00000 0.80291
						}
					}
				}
			}
		}
	}
	JOINT RHipJoint
	{
		OFFSET 0 0 0
		CHANNELS 3 Zrotation Yrotation Xrotation
		JOINT RightHip
		{
			OFFSET -1.73712 -1.40469 0.78906
			CHANNELS 3 Zrotation Yrotation Xrotation
			JOINT RightKnee
			{
				OFFSET -2.28137 -6.26801 0.00000
				CHANNELS 3 Zrotation Yrotation Xrotation
				JOINT RightAnkle
				{
					OFFSET -2.28681 -6.28298 0.00000
					CHANNELS 3 Zrotation Yrotation Xrotation
					JOINT RightToe
					{
						OFFSET -0.15927 -0.43759 1.61103
						CHANNELS 3 Zrotation Yrotation Xrotation
						End Site
						{
							OFFSET -0.00000 -0.00000 0.84630
						}
					}
				}
			}
		}
	}
	JOINT lowerback
	{
		OFFSET 0 0 0
		CHANNELS 3 Zrotation Yrotation Xrotation
		JOINT Chest
		{
			OFFSET -0.04227 2.04338 -0.00225
			CHANNELS 3 Zrotation Yrotation Xrotation
			JOINT Chest2
			{
				OFFSET -0.02148 2.04482 -0.04273
				CHANNELS 3 Zrotation Yrotation Xrotation
				JOINT lowerneck
				{
					OFFSET 0 0 0
					CHANNELS 3 Zrotation Yrotation Xrotation
					JOINT Neck
					{
						OFFSET 0.09180 1.44629 0.19359
						CHANNELS 3 Zrotation Yrotation Xrotation
						JOINT Head
						{
							OFFSET 0.00887 1.40645 0.14750
							CHANNELS 3 Zrotation Yrotation Xrotation
							End Site
							{
								OFFSET -0.00669 1.50671 0.03707
							}
						}
					}
				}
				JOINT LeftCollar
				{
					OFFSET 0 0 0
					CHANNELS 3 Zrotation Yrotation Xrotation
					JOINT LeftShoulder
					{
						OFFSET 2.17674 1.86763 -0.06520
CHANNELS 3 Zrotation Xrotation Yrotation
						JOINT LeftElbow
						{
OFFSET 0 -4.657760 0.000000
CHANNELS 3 Zrotation Xrotation Yrotation
							JOINT LeftWrist
							{
OFFSET 0 -3.555390 0.000000
CHANNELS 3 Zrotation Xrotation Yrotation
								JOINT lhand
								{
									OFFSET 0 0 0
CHANNELS 3 Zrotation Xrotation Yrotation
									JOINT LFingers
									{
OFFSET 0 -0.707260 0.000000
CHANNELS 3 Zrotation Xrotation Yrotation
										End Site
										{
OFFSET 0 -0.570220 0.000000
										}
									}
								}
								JOINT LThumb
								{
OFFSET 0 0.000000 0.000000
CHANNELS 3 Zrotation Xrotation Yrotation
									End Site
									{
OFFSET 0 -0.578920 0.578920
									}
								}
							}
						}
					}
				}
				JOINT RightCollar
				{
					OFFSET 0 0 0
					CHANNELS 3 Zrotation Yrotation Xrotation
					JOINT RightShoulder
					{
						OFFSET -2.80694 1.55459 -0.32496
CHANNELS 3 Zrotation Xrotation Yrotation
						JOINT RightElbow
						{
OFFSET 0 -4.719250 -0.000000
CHANNELS 3 Zrotation Xrotation Yrotation
							JOINT RightWrist
							{
OFFSET 0 -3.569900 0.000000
CHANNELS 3 Zrotation Xrotation Yrotation
								JOINT rhand
								{
									OFFSET 0 0 0
CHANNELS 3 Zrotation Xrotation Yrotation
									JOINT RFingers
									{
OFFSET 0 -0.507760 0.000000
CHANNELS 3 Zrotation Xrotation Yrotation
										End Site
										{
OFFSET 0 -0.409370 0.000000
										}
									}
								}
								JOINT RThumb
								{
OFFSET 0 0.000000 0.000000
CHANNELS 3 Zrotation Xrotation Yrotation
									End Site
									{
OFFSET 0 -0.415620 0.415620
									}
								}
							}
						}
					}
				}
			}
		}
	}
}
MOTION
Frames: 10
Frame Time: 0.008333333333333333
14.447196 14.905723 18.271909 166.815818 -6.741482 -174.518564 0.000000 0.000000 0.000000 18.131920 -12.383017 -51.712743 1.591297 7.956990 22.583770 -0.872563 22.103274 7.926401 0.337054 -3.730240 -10.319120 0.000000 0.000000 0.000000 7.795696 6.894363 1.651364 -4.972775 -13.353097 40.704905 -6.231177 -1.584333 -48.090238 -4.611230 12.932162 -39.115024 3.091671 0.786174 -18.697883 -0.967528 0.440970 3.585479 -2.725148 0.528632 14.696647 -1.791109 6.106278 -0.681563 -1.528345 7.788931 16.670505 0.142931 3.247204 5.119188 0.000000 0.000000 0.000000 5.619605 9.252164 -6.340572 10.470877 -17.472784 1.613474 20.873925 1.024606 15.885641 0.000000 0.000000 0.000000 -7.125000 0.000000 0.000000 -4.568735 13.079958 -3.427361 0.000000 0.000000 0.000000 -8.666113 8.785925 13.667739 -24.506906 -35.695694 -8.000439 -13.753623 7.377247 55.487670 0.000000 0.000000 0.000000 7.125000 0.000000 0.000000 76.524957 76.903171 -63.122311
14.379396 14.879599 18.207293 166.840773 -6.697226 -174.705614 0.000000 0.000000 0.000000 18.283179 -12.597475 -51.248116 1.518146 7.780066 22.048394 -0.863360 22.339955 8.310990 0.296265 -3.498432 -9.669760 0.000000 0.000000 0.000000 7.662385 6.816543 2.273379 -4.942742 -13.318958 40.574587 -6.266046 -1.582202 -48.225483 -4.777222 13.127810 -39.849991 3.163807 0.733397 -18.475260 -0.938959 0.355923 3.642472 -2.759302 0.494026 14.623937 -1.842640 6.116784 -0.699135 -1.475026 7.796460 16.716803 0.168903 3.248243 5.132197 0.000000 0.000000 0.000000 5.550410 9.458773 -5.778918 10.394764 -17.354735 1.590696 20.957748 1.214713 16.063136 0.000000 0.000000 0.000000 -7.125000 0.000000 0.000000 -4.522161 12.882879 -3.410872 0.000000 0.000000 0.000000 -8.874666 8.593315 14.048225 -24.944037 -36.145936 -8.257257 -12.168662 6.154898 54.915483 0.000000 0.000000 0.000000 7.125000 0.000000 0.000000 74.375761 76.227807 -60.315870
14.310041 14.852252 18.146262 166.996381 -6.659963 -174.845122 0.000000 0.000000 0.000000 18.610861 -12.771298 -50.911208 1.460558 7.637750 21.619236 -0.917343 22.772664 8.285940 0.198002 -2.832399 -7.814632 0.000000 0.000000 0.000000 7.672972 6.814420 2.803280 -4.927139 -13.301192 40.506824 -6.241696 -1.467777 -48.099631 -4.709159 13.048076 -39.549684 3.399864 0.745732 -18.229719 -0.911504 0.321148 3.657051 -2.872318 0.494745 14.493117 -1.793357 6.125696 -0.638015 -1.488474 7.794135 16.823896 0.156006 3.241309 5.157599 0.000000 0.000000 0.000000 5.579419 9.800105 -5.479386 10.368632 -17.314109 1.582870 21.351498 1.248385 16.371741 0.000000 0.000000 0.000000 -7.125000 0.000000 0.000000 -4.276796 12.509032 -3.257533 0.000000 0.000000 0.000000 -9.007572 8.473477 14.287022 -25.361492 -36.570469 -8.504683 -11.171309 6.025533 56.499806 0.000000 0.000000 0.000000 7.125000 0.000000 0.000000 80.889665 75.984719 -66.417918
14.234429 14.826770 18.082002 167.025005 -6.377100 -174.807098 0.000000 0.000000 0.000000 18.859713 -12.809222 -50.608923 1.410658 7.511834 21.240903 -1.022190 23.370147 7.965806 0.098898 -1.956846 -5.388588 0.000000 0.000000 0.000000 7.433602 7.026508 3.017331 -4.960861 -13.339423 40.652972 -6.230173 -1.329667 -48.017660 -4.687723 13.023229 -39.455626 3.584460 0.855510 -18.202850 -0.927425 0.427730 3.661610 -2.963311 0.560627 14.494320 -1.762735 6.165798 -0.570081 -1.552840 7.842286 16.922150 0.132459 3.254807 5.180673 0.000000 0.000000 0.000000 5.640706 10.085426 -5.326853 10.353189 -17.290084 1.578280 21.567253 1.170088 16.673976 0.000000 0.000000 0.000000 -7.125000 0.000000 0.000000 -4.150995 12.163184 -3.191779 0.000000 0.000000 0.000000 -9.129945 8.237924 14.386569 -25.487832 -36.698468 -8.579712 -11.269604 6.471896 57.589204 0.000000 0.000000 0.000000 7.125000 0.000000 0.000000 85.364362 76.077949 -70.925333
14.157353 14.802011 18.017729 167.005147 -6.070644 -174.749663 0.000000 0.000000 0.000000 18.980599 -12.811684 -50.343927 1.371672 7.411821 20.941278 -1.075866 23.822382 7.993361 0.065373 -1.638165 -4.506817 0.000000 0.000000 0.000000 7.112679 7.225050 3.138793 -5.012232 -13.397474 40.875279 -6.222073 -1.459073 -48.021209 -4.881997 13.246004 -40.303012 3.687679 0.899862 -18.193584 -0.890257 0.457216 3.728394 -2.971438 0.583581 14.571748 -2.012094 6.253300 -0.653356 -1.562878 7.982941 16.913685 0.178001 3.307846 5.182834 0.000000 0.000000 0.000000 5.541662 10.162556 -4.909377 10.301984 -17.210457 1.563121 21.526205 1.290504 16.517097 0.000000 0.000000 0.000000 -7.125000 0.000000 0.000000 -4.169158 12.334217 -3.190652 0.000000 0.000000 0.000000 -9.413527 7.730396 14.630936 -25.263041 -36.470560 -8.446156 -12.890427 7.178235 57.258885 0.000000 0.000000 0.000000 7.125000 0.000000 0.000000 84.065690 76.658081 -70.278238
14.082266 14.776301 17.953028 167.068017 -5.963248 -174.812706 0.000000 0.000000 0.000000 19.059925 -12.899820 -50.112064 1.341259 7.332349 20.703901 -1.026876 23.957657 8.645382 0.121961 -2.192709 -6.040903 0.000000 0.000000 0.000000 6.941281 7.222691 3.447254 -5.037888 -13.426304 40.986069 -6.208795 -1.841690 -48.073521 -5.207035 13.611632 -41.706452 3.806626 0.886579 -18.058883 -0.837994 0.407983 3.832761 -2.994943 0.570944 14.611635 -2.242548 6.288114 -0.803545 -1.528232 8.051628 16.902133 0.233274 3.331493 5.194064 0.000000 0.000000 0.000000 5.500799 10.176813 -4.487655 10.234541 -17.105544 1.543188 21.305281 1.703657 15.548619 0.000000 0.000000 0.000000 -7.125000 0.000000 0.000000 -4.264006 13.384724 -3.168042 0.000000 0.000000 0.000000 -9.643898 7.227958 14.924339 -25.127834 -36.333263 -8.365947 -13.656619 7.010016 57.523103 0.000000 0.000000 0.000000 7.125000 0.000000 0.000000 85.073796 76.857847 -71.603138
14.005970 14.749685 17.882074 167.172993 -5.948043 -174.914553 0.000000 0.000000 0.000000 19.166147 -13.047908 -49.877355 1.309400 7.248305 20.453175 -0.936307 23.922520 9.467390 0.228197 -3.070219 -8.474683 0.000000 0.000000 0.000000 6.830951 7.122586 3.926716 -5.032307 -13.420068 40.962166 -6.229416 -2.029690 -48.206175 -5.424339 13.846339 -42.625170 3.999358 1.005713 -17.954382 -0.929622 0.538962 3.874760 -3.169252 0.654084 14.614759 -1.900319 6.165509 -0.780554 -1.557856 7.858642 17.071213 0.162602 3.247203 5.257304 0.000000 0.000000 0.000000 5.908091 10.408781 -4.723733 10.222670 -17.087077 1.539742 20.932731 2.118009 14.021266 0.000000 0.000000 0.000000 -7.125000 0.000000 0.000000 -4.440234 15.041506 -3.144331 0.000000 0.000000 0.000000 -9.444075 7.153152 14.876426 -25.528037 -36.738852 -8.603756 -11.441337 5.500408 59.654780 0.000000 0.000000 0.000000 7.125000 0.000000 0.000000 93.572654 75.894845 -79.217250
13.925817 14.721789 17.813097 167.193387 -5.742981 -174.859329 0.000000 0.000000 0.000000 19.241859 -13.038612 -49.721855 1.284203 7.181127 20.253107 -0.888953 23.905523 9.885515 0.290543 -3.466416 -9.580005 0.000000 0.000000 0.000000 6.522532 7.151879 4.222818 -5.035682 -13.423850 40.976601 -6.303263 -1.643179 -48.387097 -5.421724 13.843579 -42.614350 4.142213 1.121065 -17.966776 -1.011276 0.670678 3.905775 -3.304140 0.733898 14.676044 -1.709741 6.108921 -0.807394 -1.550514 7.768396 17.154018 0.132328 3.212119 5.294506 0.000000 0.000000 0.000000 6.145157 10.651470 -4.868721 10.271787 -17.163612 1.554207 20.531478 2.202379 13.128509 0.000000 0.000000 0.000000 -7.125000 0.000000 0.000000 -4.679903 16.025618 -3.216941 0.000000 0.000000 0.000000 -9.375155 7.000201 14.848926 -25.565096 -36.775977 -8.625963 -13.943333 7.346403 56.889851 0.000000 0.000000 0.000000 7.125000 0.000000 0.000000 82.656187 77.036992 -69.283378
13.840839 14.691608 17.753430 167.133372 -5.239899 -174.536639 0.000000 0.000000 0.000000 19.281260 -12.711574 -49.768562 1.269416 7.141204 20.134295 -0.868600 23.884039 10.046076 0.314462 -3.604712 -9.967233 0.000000 0.000000 0.000000 5.965523 7.445083 4.041120 -5.057340 -13.448030 41.069668 -6.320484 -1.125137 -48.316297 -5.337007 13.753469 -42.258957 4.258068 1.309547 -18.062626 -1.092253 0.904302 3.878812 -3.391205 0.856624 14.729797 -1.688954 6.072477 -0.851840 -1.532422 7.723603 17.095133 0.133372 3.197942 5.283546 0.000000 0.000000 0.000000 6.273798 10.724793 -4.884377 10.260132 -17.145433 1.550727 20.768842 1.751310 13.422844 0.000000 0.000000 0.000000 -7.125000 0.000000 0.000000 -4.527430 15.691360 -3.144054 0.000000 0.000000 0.000000 -9.440476 6.691341 15.132737 -25.829162 -37.039347 -8.784612 -14.450677 7.175316 54.387224 0.000000 0.000000 0.000000 7.125000 0.000000 0.000000 71.673786 76.977151 -58.609488
13.759828 14.664554 17.693915 167.167199 -4.989959 -174.334494 0.000000 0.000000 0.000000 19.285566 -12.516371 -49.864327 1.262793 7.123177 20.080790 -0.782940 23.686622 10.598865 0.379732 -3.953197 -10.945585 0.000000 0.000000 0.000000 5.611227 7.568609 4.056031 -5.049014 -13.438793 41.034103 -6.283232 -0.916160 -48.115950 -5.258088 13.668548 -41.925689 4.343024 1.360776 -18.001845 -1.083508 0.954591 3.888394 -3.414565 0.886348 14.711376 -1.867293 6.079291 -0.898575 -1.487094 7.746329 16.994364 0.177140 3.207491 5.251454 0.000000 0.000000 0.000000 6.289676 10.830083 -4.809472 10.265948 -17.154568 1.552436 21.126140 1.251946 13.686584 0.000000 0.000000 0.000000 -7.125000 0.000000 0.000000 -4.292941 15.375871 -3.009215 0.000000 0.000000 0.000000 -9.639006 6.451679 15.635968 -26.343319 -37.544493 -9.096611 -13.739762 6.412037 54.374676 0.000000 0.000000 0.000000 7.125000 0.000000 0.000000 71.757803 76.731611 -58.387013
